<?xml version="1.0" encoding="UTF-8"?><svg id="a" xmlns="http://www.w3.org/2000/svg" width="125.2" height="35.96" viewBox="0 0 125.2 35.96"><g fill="none" opacity=".5"><path d="m19.96,27.3l15.28-14.32c-.79-2.76-2.23-5.24-4.14-7.29l-11.44,12.13.3,9.47Z" fill="#fff"/><path d="m20.09,31.67l.13,4.14c5.45-.68,10.13-3.8,12.93-8.23l-9.67.46-3.4,3.63Z" fill="#fff"/><path d="m21.62.38c-.82-.17-1.66-.29-2.51-.35l.08,2.58,2.43-2.24Z" fill="#fff"/><path d="m16.6,8.35L10.3,1.74c-2.67,1.26-4.97,3.16-6.72,5.5l12.68,12.04.34-10.93Z" fill="#fff"/><path d="m.06,19.32c.33,4.53,2.35,8.6,5.43,11.57l5.1-.35L.06,19.32Z" fill="#fff"/></g><g fill="none" opacity=".75"><path d="m35.71,15.01l-10.29,10.98,8.43.4c1.34-2.51,2.1-5.37,2.1-8.41,0-1.01-.09-2.01-.25-2.97Z" fill="#fff"/><path d="m19.57,14.94l6.86-6.46.24-6.22c-1.34-.75-2.78-1.32-4.3-1.7l-3.14,3.41.34,10.97Z" fill="#fff"/><path d="m16.16,22.19l-7.76-8.16-7.91-.24c-.24.98-.4,1.99-.46,3.03l15.83,14.85.3-9.47Z" fill="#fff"/><path d="m16.86.04c-2.11.13-4.11.63-5.96,1.43l5.75,5.47.22-6.9Z" fill="#fff"/></g><path d="m30.26,4.86c-.91-.85-1.9-1.6-2.97-2.24l.19,4.87,2.79-2.63Z" fill="#fff"/><path d="m6.93,32.14c2.43,1.9,5.36,3.19,8.56,3.63l-3.05-3.25-5.51-.38Z" fill="#fff"/><path d="m2.9,8.23c-.98,1.51-1.74,3.17-2.23,4.95l6.74-.21-4.51-4.74Z" fill="#fff"/><circle cx="17.98" cy="17.98" r="17.98" fill="none"/><path d="m51.53,3h2.79l3.38,12h-2.86l-.58-2.43h-2.93l-.61,2.43h-2.76l3.57-12Zm.3,7.6h2l-.48-2c-.21-.82-.36-1.66-.45-2.5h0c-.11.84-.27,1.68-.49,2.5l-.58,2Z" fill="#fff"/><path d="m58.53,6h2.07l.21.86c.68-.7,1.62-1.09,2.6-1.09,1.56,0,2.39.65,2.39,2.48v6.75h-2.56v-6.18c0-.87-.32-1.06-.84-1.06-.49,0-.97.2-1.33.53v6.71h-2.54V6Z" fill="#fff"/><path d="m66.84,16.1c.02-.75.49-1.41,1.19-1.67-.5-.34-.79-.91-.77-1.51-.02-.74.36-1.43,1-1.8-.77-.53-1.2-1.44-1.11-2.37,0-1.92,1.11-3,3.6-3,.52,0,1.04.09,1.53.25h2.77v1.27l-.9.35c.18.41.28.85.27,1.3,0,1.9-1,2.76-3.6,2.76-.33.02-.67.02-1,0-.16.19-.26.42-.27.67,0,.25.18.44.59.44h1.71c1.82,0,3.21.7,3.21,2.57,0,2.07-1.35,3.13-4.41,3.13-2.6,0-3.84-.86-3.84-2.34m2.23-.41c0,.66.22,1.1,1.68,1.1,1.17,0,1.8-.44,1.8-1.13s-.43-.88-1.6-.88h-1.65c-.13.29-.2.6-.2.91m3-6.86c0-.86-.2-1.32-1.23-1.32s-1.21.44-1.21,1.26.24,1.28,1.19,1.28,1.23-.4,1.23-1.27" fill="#fff"/><path d="m75.54,10.45c0-3.39,1.44-4.68,3.85-4.68,2.77,0,3.85,1.48,3.85,4.79v.72h-5c.09,1.63.54,2,1.66,2,.74-.02,1.45-.29,2-.78l1.1,1.66c-.85.71-1.93,1.09-3.04,1.06-3.08,0-4.46-1.39-4.46-4.77m2.75-.86h2.38c0-1.44-.22-2-1.19-2-.81,0-1.12.4-1.19,2" fill="#fff"/><path d="m84.45,12.35V3h2.51v9.55c0,.68.1.77.7.77h.21l.26,1.62c-.47.17-.97.27-1.48.27-1.91,0-2.23-.88-2.23-2.84" fill="#fff"/><path d="m92.58,9c0-4.37,1.69-6.25,5-6.25s4.93,1.87,4.93,6.21-1.62,6.23-4.93,6.23-5-1.83-5-6.19m7-.06c0-3.1-.48-4.08-2-4.08s-2,1-2,4.08.48,4.16,2,4.16,2-1,2-4.16" fill="#fff"/><path d="m103.4,12.33c0-2.09,1.26-2.93,4-2.93h.56v-.34c0-.9-.16-1.28-1-1.28-.85.04-1.68.31-2.4.77l-.92-1.69c1.05-.72,2.3-1.11,3.57-1.09,2.3,0,3.31.79,3.31,2.91v6.32h-2s-.12-.35-.25-.7c-.54.61-1.31.95-2.12.93-1.93,0-2.72-1.11-2.72-2.89m4.53.66v-2.07h-.12c-1.64,0-1.91.4-1.91,1.37s.23,1.21.9,1.21c.43-.02.83-.2,1.13-.51" fill="#fff"/><path d="m112.05,3h2.54v12h-2.54V3Zm2.56,6.89l2-3.89h2.83l-2.29,3.68,2.81,5.32h-2.75l-2.6-5.11Z" fill="#fff"/><path d="m121.84,4.96c0-1.19.67-1.96,1.68-1.96s1.68.77,1.68,1.96-.67,1.95-1.68,1.95-1.68-.77-1.68-1.95Zm2.96,0c0-1.01-.47-1.61-1.28-1.61s-1.28.6-1.28,1.61.46,1.6,1.28,1.6,1.28-.6,1.28-1.6Zm-1.94-1.1h.66c.52,0,.73.23.73.62,0,.35-.13.49-.38.56.13.05.22.16.28.38l.18.6h-.47l-.17-.62c-.06-.22-.13-.27-.25-.27h-.14v.89h-.43v-2.16Zm.67.94c.2,0,.27-.09.27-.3,0-.19-.08-.27-.27-.27h-.24v.57h.24Z" fill="#fff"/><rect x="47.96" y="20.63" width="72" height=".75" fill="#fff"/><path d="m47.96,30.05c0-1.92.68-3.11,2.4-3.11.53-.02,1.06.14,1.49.46l-.4.58c-.31-.24-.7-.37-1.09-.37-1.19,0-1.49.75-1.49,2.4s.3,2.43,1.52,2.43c.43,0,.84-.16,1.16-.44l.4.59c-.46.34-1.02.52-1.59.52-1.67,0-2.4-1.07-2.4-3.06" fill="#fff"/><path d="m54.52,27h.92l1.86,6h-.91l-.5-1.73h-1.93l-.51,1.73h-.85l1.92-6Zm-.34,3.56h1.51l-.3-1c-.17-.56-.32-1.13-.43-1.71h0c-.11.58-.26,1.16-.45,1.72l-.33.99Z" fill="#fff"/><path d="m58.44,27.05h1.82c1.26,0,1.89.64,1.89,1.78.13.88-.47,1.7-1.35,1.83-.15.02-.29.02-.44,0h-1.09v2.33h-.83v-5.95Zm1.81,2.95c.7,0,1-.28,1-1.12s-.3-1.14-1.06-1.14h-.95v2.26h1.01Z" fill="#fff"/><rect x="63.52" y="27.05" width=".83" height="5.95" fill="#fff"/><polygon points="67.09 27.74 65.62 27.74 65.62 27.05 69.38 27.05 69.38 27.74 67.92 27.74 67.92 33 67.09 33 67.09 27.74" fill="#fff"/><path d="m71.47,27h.92l1.86,6h-.91l-.5-1.73h-1.88l-.56,1.73h-.85l1.92-6Zm-.34,3.56h1.51l-.3-1c-.16-.56-.28-1.13-.38-1.71h0c-.11.58-.26,1.16-.45,1.72l-.38.99Z" fill="#fff"/><polygon points="75.39 27.05 76.22 27.05 76.22 32.31 78.34 32.31 78.34 33 75.39 33 75.39 27.05" fill="#fff"/><path d="m84.08,27h.88l1.87,6h-.87l-.51-1.73h-1.92l-.52,1.73h-.85l1.92-6Zm-.35,3.56h1.52l-.3-1c-.18-.56-.32-1.14-.43-1.72h0c-.11.58-.26,1.16-.45,1.72l-.34,1Z" fill="#fff"/><path d="m87.96,27.05h1.58c1.69,0,2.47.74,2.47,3s-.81,2.95-2.47,2.95h-1.58v-5.95Zm1.65,5.27c1.19,0,1.51-.57,1.51-2.29s-.28-2.32-1.49-2.32h-.84v4.61h.82Z" fill="#fff"/><path d="m92.62,27.05h.91l1,3.5c.17.59.26,1,.34,1.36h0c.11-.4.18-.73.37-1.37l1-3.49h.85l-1.8,5.95h-.83l-1.84-5.95Z" fill="#fff"/><rect x="98.34" y="27.05" width=".83" height="5.95" fill="#fff"/><path d="m100.49,32.51l.36-.58c.41.33.92.51,1.44.5.83,0,1.14-.36,1.14-1s-.43-.93-1.18-1.21c-1-.38-1.5-.77-1.5-1.77s.67-1.53,1.75-1.53c.53-.03,1.05.11,1.49.41l-.34.62c-.32-.24-.71-.36-1.11-.35-.59,0-1,.23-1,.83s.24.78,1,1.05c1,.36,1.72.72,1.72,1.91,0,.88-.46,1.7-1.93,1.7-.67.01-1.32-.2-1.86-.6" fill="#fff"/><path d="m105.44,30.05c0-2,.8-3.11,2.3-3.11s2.3,1.07,2.3,3.06-.74,3.11-2.29,3.11-2.31-1-2.31-3.06m3.71,0c0-1.66-.38-2.47-1.4-2.47s-1.42.78-1.42,2.43.39,2.47,1.42,2.47,1.4-.78,1.4-2.43" fill="#fff"/><path d="m111.52,27.05h1.72c1.18,0,1.92.53,1.92,1.66.09.76-.44,1.46-1.2,1.58.32.11.56.39.79,1l.64,1.71h-.91l-.63-1.68c-.27-.72-.53-.87-.94-.87h-.59v2.55h-.82l.02-5.95Zm1.69,2.75c.83,0,1.09-.34,1.09-1.08s-.27-1-1.09-1h-.87v2.08h.87Z" fill="#fff"/><path d="m116.17,32.51l.36-.58c.4.33.92.51,1.44.5.83,0,1.13-.36,1.13-1s-.42-.93-1.18-1.21c-1-.38-1.49-.77-1.49-1.77s.67-1.53,1.75-1.53c.53-.03,1.05.12,1.49.41l-.34.62c-.32-.23-.71-.36-1.11-.35-.59,0-1,.23-1,.83s.24.78,1,1.05c1,.36,1.72.72,1.72,1.91,0,.88-.46,1.7-1.93,1.7-.67.01-1.32-.2-1.86-.6" fill="#fff"/></svg>